<svg xmlns="http://www.w3.org/2000/svg" xmlns:xlink="http://www.w3.org/1999/xlink" width="566" zoomAndPan="magnify" viewBox="0 0 424.5 520.499984" height="694" preserveAspectRatio="xMidYMid meet" version="1.0"><defs><g/><clipPath id="484846ecd7"><path d="M 0 0.0546875 L 424 0.0546875 L 424 519.945312 L 0 519.945312 Z M 0 0.0546875 " clip-rule="nonzero"/></clipPath></defs><g clip-path="url(#484846ecd7)"><path fill="#ffffff" d="M 0 0.0546875 L 424 0.0546875 L 424 519.945312 L 0 519.945312 Z M 0 0.0546875 " fill-opacity="1" fill-rule="nonzero"/></g><g fill="#faf6f5" fill-opacity="1"><g transform="translate(94.792557, 228.696062)"><g><path d="M 69.425781 -148.828125 L 17.832031 -148.828125 L 17.832031 -126.109375 L 44.585938 -126.109375 L 44.585938 -43.3125 C 44.585938 -43.3125 44.585938 -24.839844 25.902344 -24.839844 L 7.21875 -24.839844 L 7.21875 0 L 25.902344 0 C 25.902344 0 69.425781 0 69.425781 -43.3125 Z M 69.425781 -148.828125 "/></g></g></g><g fill="#faf6f5" fill-opacity="1"><g transform="translate(172.496867, 228.696062)"><g><path d="M 140.335938 -148.613281 L 16.773438 -148.613281 L 16.773438 -59.660156 C 16.773438 -58.171875 16.984375 -43.949219 24.203125 -29.511719 C 34.394531 -9.128906 53.714844 2.125 78.554688 2.125 C 103.394531 2.125 122.714844 -9.128906 132.90625 -29.511719 C 140.121094 -43.949219 140.335938 -58.171875 140.335938 -59.660156 Z M 110.398438 -39.914062 C 104.457031 -28.238281 94.050781 -22.71875 78.554688 -22.71875 C 63.269531 -22.71875 52.863281 -28.238281 46.707031 -39.914062 C 41.613281 -49.46875 41.398438 -59.660156 41.398438 -59.660156 L 41.398438 -123.773438 L 115.707031 -123.773438 L 115.707031 -59.871094 C 115.707031 -59.660156 115.496094 -49.46875 110.398438 -39.914062 Z M 110.398438 -39.914062 "/></g></g></g><g fill="#faf6f5" fill-opacity="1"><g transform="translate(132.260143, 397.996643)"><g/></g></g><g fill="#faf6f5" fill-opacity="1"><g transform="translate(197.023702, 397.996643)"><g><path d="M 91.292969 -125.898438 L 91.292969 -148.613281 L 4.246094 -148.613281 L 4.246094 -125.898438 L 35.457031 -125.898438 L 35.457031 0 L 60.082031 0 L 60.082031 -125.898438 Z M 91.292969 -125.898438 "/></g></g></g><g fill="#faf6f5" fill-opacity="1"><g transform="translate(361.551113, 236.053638)"><g><path d="M 26.671875 5.53125 L 6.09375 5.53125 C 5.132812 5.53125 4.460938 5.722656 4.078125 6.109375 C 3.691406 6.503906 3.5 7.035156 3.5 7.703125 C 3.5 8.359375 3.691406 8.882812 4.078125 9.28125 C 4.460938 9.675781 5.132812 9.875 6.09375 9.875 L 26.671875 9.875 L 26.671875 13.828125 L 6.359375 13.828125 C 4.203125 13.828125 2.546875 13.300781 1.390625 12.25 C 0.234375 11.195312 -0.34375 9.640625 -0.34375 7.578125 C -0.34375 5.523438 0.234375 3.96875 1.390625 2.90625 C 2.546875 1.851562 4.203125 1.328125 6.359375 1.328125 L 26.671875 1.328125 Z M 26.671875 5.53125 "/></g></g></g><g fill="#faf6f5" fill-opacity="1"><g transform="translate(361.551113, 252.632324)"><g><path d="M 26.671875 15.515625 L 13.71875 11.125 L 0 15.8125 L 0 11.390625 L 10.5625 7.96875 L 0 4.5 L 0 0.578125 L 13.71875 5.265625 L 26.671875 0.875 L 26.671875 5.21875 L 16.84375 8.390625 L 26.671875 11.625 Z M 26.671875 15.515625 "/></g></g></g><g fill="#faf6f5" fill-opacity="1"><g transform="translate(361.551113, 270.430568)"><g/></g></g><g fill="#faf6f5" fill-opacity="1"><g transform="translate(361.551113, 277.748207)"><g><path d="M 26.671875 5.53125 L 6.09375 5.53125 C 5.132812 5.53125 4.460938 5.722656 4.078125 6.109375 C 3.691406 6.503906 3.5 7.035156 3.5 7.703125 C 3.5 8.359375 3.691406 8.882812 4.078125 9.28125 C 4.460938 9.675781 5.132812 9.875 6.09375 9.875 L 26.671875 9.875 L 26.671875 13.828125 L 6.359375 13.828125 C 4.203125 13.828125 2.546875 13.300781 1.390625 12.25 C 0.234375 11.195312 -0.34375 9.640625 -0.34375 7.578125 C -0.34375 5.523438 0.234375 3.96875 1.390625 2.90625 C 2.546875 1.851562 4.203125 1.328125 6.359375 1.328125 L 26.671875 1.328125 Z M 26.671875 5.53125 "/></g></g></g><g fill="#faf6f5" fill-opacity="1"><g transform="translate(361.551113, 294.326892)"><g><path d="M 26.671875 1.53125 L 26.671875 5.71875 L 0 5.71875 L 0 1.53125 Z M 26.671875 1.53125 "/></g></g></g><g fill="#faf6f5" fill-opacity="1"><g transform="translate(361.551113, 302.978426)"><g/></g></g><g fill="#faf6f5" fill-opacity="1"><g transform="translate(361.551113, 310.296062)"><g><path d="M 26.671875 1.53125 L 26.671875 8.15625 C 26.671875 10.257812 26.113281 11.828125 25 12.859375 C 23.882812 13.890625 22.242188 14.40625 20.078125 14.40625 L 6.59375 14.40625 C 4.4375 14.40625 2.796875 13.890625 1.671875 12.859375 C 0.554688 11.828125 0 10.257812 0 8.15625 L 0 1.53125 Z M 22.859375 5.71875 L 3.8125 5.71875 L 3.8125 8.078125 C 3.8125 8.734375 4 9.253906 4.375 9.640625 C 4.757812 10.023438 5.4375 10.21875 6.40625 10.21875 L 20.28125 10.21875 C 21.238281 10.21875 21.90625 10.023438 22.28125 9.640625 C 22.664062 9.253906 22.859375 8.734375 22.859375 8.078125 Z M 22.859375 5.71875 "/></g></g></g><g fill="#faf6f5" fill-opacity="1"><g transform="translate(361.551113, 327.255856)"><g><path d="M 15.4375 5.71875 L 15.4375 11.46875 L 11.625 11.46875 L 11.625 5.71875 L 3.8125 5.71875 L 3.8125 12.953125 L 0 12.953125 L 0 1.53125 L 26.671875 1.53125 L 26.671875 12.953125 L 22.859375 12.953125 L 22.859375 5.71875 Z M 15.4375 5.71875 "/></g></g></g><g fill="#faf6f5" fill-opacity="1"><g transform="translate(361.551113, 342.691209)"><g><path d="M 20.28125 0.984375 C 22.4375 0.984375 24.09375 1.5 25.25 2.53125 C 26.40625 3.5625 26.984375 5.109375 26.984375 7.171875 C 26.984375 9.222656 26.40625 10.765625 25.25 11.796875 C 24.09375 12.828125 22.4375 13.34375 20.28125 13.34375 L 19.25 13.34375 L 19.25 9.375 L 20.546875 9.375 C 21.503906 9.375 22.179688 9.1875 22.578125 8.8125 C 22.972656 8.445312 23.171875 7.9375 23.171875 7.28125 C 23.171875 6.613281 22.972656 6.097656 22.578125 5.734375 C 22.179688 5.367188 21.503906 5.1875 20.546875 5.1875 C 19.628906 5.1875 18.820312 5.390625 18.125 5.796875 C 17.425781 6.203125 16.765625 6.707031 16.140625 7.3125 C 15.515625 7.925781 14.890625 8.582031 14.265625 9.28125 C 13.648438 9.976562 12.972656 10.628906 12.234375 11.234375 C 11.492188 11.847656 10.65625 12.359375 9.71875 12.765625 C 8.78125 13.171875 7.675781 13.375 6.40625 13.375 C 4.238281 13.375 2.578125 12.847656 1.421875 11.796875 C 0.265625 10.742188 -0.3125 9.1875 -0.3125 7.125 C -0.3125 5.070312 0.265625 3.515625 1.421875 2.453125 C 2.578125 1.398438 4.238281 0.875 6.40625 0.875 L 8.234375 0.875 L 8.234375 4.84375 L 6.140625 4.84375 C 5.171875 4.84375 4.492188 5.035156 4.109375 5.421875 C 3.734375 5.816406 3.546875 6.347656 3.546875 7.015625 C 3.546875 7.671875 3.734375 8.195312 4.109375 8.59375 C 4.492188 8.988281 5.171875 9.1875 6.140625 9.1875 C 7.046875 9.1875 7.847656 8.984375 8.546875 8.578125 C 9.253906 8.171875 9.914062 7.660156 10.53125 7.046875 C 11.15625 6.441406 11.78125 5.789062 12.40625 5.09375 C 13.03125 4.394531 13.707031 3.738281 14.4375 3.125 C 15.175781 2.507812 16.015625 2 16.953125 1.59375 C 17.898438 1.1875 19.007812 0.984375 20.28125 0.984375 Z M 20.28125 0.984375 "/></g></g></g><g fill="#faf6f5" fill-opacity="1"><g transform="translate(361.551113, 358.355227)"><g><path d="M 26.671875 1.53125 L 26.671875 5.71875 L 0 5.71875 L 0 1.53125 Z M 26.671875 1.53125 "/></g></g></g><g fill="#faf6f5" fill-opacity="1"><g transform="translate(361.551113, 367.006761)"><g><path d="M 14.859375 7.8125 L 14.859375 13.6875 L 6.40625 13.6875 C 4.238281 13.6875 2.578125 13.15625 1.421875 12.09375 C 0.265625 11.039062 -0.3125 9.488281 -0.3125 7.4375 C -0.3125 5.375 0.265625 3.816406 1.421875 2.765625 C 2.578125 1.710938 4.238281 1.1875 6.40625 1.1875 L 20.28125 1.1875 C 22.4375 1.1875 24.09375 1.710938 25.25 2.765625 C 26.40625 3.816406 26.984375 5.375 26.984375 7.4375 C 26.984375 9.488281 26.40625 11.039062 25.25 12.09375 C 24.09375 13.15625 22.4375 13.6875 20.28125 13.6875 L 17.6875 13.6875 L 17.6875 9.71875 L 20.546875 9.71875 C 21.503906 9.71875 22.179688 9.519531 22.578125 9.125 C 22.972656 8.726562 23.171875 8.203125 23.171875 7.546875 C 23.171875 6.890625 22.972656 6.363281 22.578125 5.96875 C 22.179688 5.570312 21.503906 5.375 20.546875 5.375 L 6.140625 5.375 C 5.171875 5.375 4.492188 5.570312 4.109375 5.96875 C 3.734375 6.363281 3.546875 6.890625 3.546875 7.546875 C 3.546875 8.203125 3.734375 8.726562 4.109375 9.125 C 4.492188 9.519531 5.171875 9.71875 6.140625 9.71875 L 11.046875 9.71875 L 11.046875 7.8125 Z M 14.859375 7.8125 "/></g></g></g><g fill="#faf6f5" fill-opacity="1"><g transform="translate(361.551113, 383.280557)"><g><path d="M 19.328125 5.265625 L 0 5.265625 L 0 1.484375 L 26.671875 1.484375 L 26.671875 6.75 L 10.703125 11.046875 L 26.671875 11.046875 L 26.671875 14.78125 L 0 14.78125 L 0 10.484375 Z M 19.328125 5.265625 "/></g></g></g></svg>