<svg xmlns="http://www.w3.org/2000/svg" width="500" height="500" style="width:100%;height:100%;transform:translate3d(0,0,0);content-visibility:visible" viewBox="0 0 500 500"><defs><clipPath id="a"><path d="M0 0h500v500H0z"/></clipPath></defs><g clip-path="url(#a)"><g style="display:block"><path fill="#00F" d="m293.278 295.384-4.114 30.351h-74.348l5.815-23.413 72.647-6.938z"/><path fill="#00F" d="M223.651 288.776c8.177 0 12.776 6.623 10.276 14.8s-11.148 14.8-19.325 14.8c-8.14 0-12.775-6.623-10.275-14.8s11.184-14.8 19.324-14.8zm79.714-5.254c9.546 0 14.915 7.733 11.996 17.279-2.907 9.509-13.004 17.242-22.55 17.242-9.51 0-14.878-7.733-11.97-17.242 2.918-9.546 13.015-17.279 22.524-17.279zm-31.542-26.566c16.687 0 26.1 13.505 20.998 30.192-5.102 16.687-22.772 30.192-39.46 30.192-16.65 0-26.063-13.505-20.96-30.192 5.101-16.687 22.772-30.192 39.422-30.192z"/><path fill="none" stroke="#00F" stroke-width="5.6" d="M0-4c2.208 0 4 1.792 4 4S2.208 4 0 4s-4-1.792-4-4 1.792-4 4-4z" transform="matrix(3.7 0 -1.1312 3.7 219.147 303.569)"/><path fill="none" stroke="#00F" stroke-width="5.6" d="M0-4.665A4.667 4.667 0 0 1 4.665 0 4.667 4.667 0 0 1 0 4.665 4.667 4.667 0 0 1-4.665 0 4.667 4.667 0 0 1 0-4.665z" transform="matrix(3.7 0 -1.1312 3.7 298.103 300.794)"/><path fill="none" stroke="#00F" stroke-width="5.6" d="M0-8.165A8.169 8.169 0 0 1 8.165 0 8.169 8.169 0 0 1 0 8.165 8.169 8.169 0 0 1-8.165 0 8.169 8.169 0 0 1 0-8.165z" transform="matrix(3.7 0 -1.1312 3.7 262.607 287.148)"/><path fill="none" stroke="#00F" stroke-linecap="round" stroke-linejoin="round" stroke-width="20.72" d="M362.965 212.848c-.067-30.329-.115-52.876-.115-52.876s0 0 0 0l-192.4-.304-24.046-30.1-79.728-.121.463 240.385 294.997.462"/><path fill="none" stroke="#00F" stroke-linecap="round" stroke-linejoin="round" stroke-width="20.72" d="m66.85 369.484 67.525-153.709h296L362.85 370.409"/></g><g class="com" style="display:none"><path/><path/><path/><path/><path/><path/><path/><path/><path/><path/><path/><path/></g></g></svg>