<svg version="1.2" xmlns="http://www.w3.org/2000/svg" viewBox="0 0 73 93" width="73" height="93">
	<defs>
		<clipPath clipPathUnits="userSpaceOnUse" id="cp1">
			<path d="m73 92h-31v-32h31z"/>
		</clipPath>
	</defs>
	<style>
		.s0 { fill: #000000 } 
		.s1 { fill: #b5e38e } 
		.s2 { opacity: .55;fill: #000000 } 
	</style>
	<path class="s0" d="m35.5 58h-35.5c0 9.28 3.74 18.19 10.4 24.75 6.66 6.56 15.68 10.25 25.1 10.25z"/>
	<path class="s1" d="m14 28c7.73 0 14-6.27 14-14 0-7.73-6.27-14-14-14-7.73 0-14 6.27-14 14 0 7.73 6.27 14 14 14z"/>
	<g id="Clip-Path" clip-path="url(#cp1)">
		<g>
			<path class="s1" d="m66.06 60c-3.83 0-6.93 3.12-6.93 6.97 0 3.85 3.1 6.97 6.93 6.97 3.83 0 6.94-3.12 6.94-6.97 0-3.85-3.11-6.97-6.94-6.97z"/>
			<path class="s0" d="m48.87 60c-3.83 0-6.94 3.12-6.94 6.97 0 3.85 3.11 6.97 6.94 6.97 3.83 0 6.93-3.12 6.93-6.97 0-3.85-3.1-6.97-6.93-6.97z"/>
			<path class="s0" d="m66.06 78.06c-3.83 0-6.93 3.12-6.93 6.97 0 3.85 3.1 6.97 6.93 6.97 3.83 0 6.94-3.12 6.94-6.97 0-3.85-3.11-6.97-6.94-6.97z"/>
			<path class="s2" d="m48.87 78.06c-3.83 0-6.94 3.12-6.94 6.97 0 3.85 3.11 6.97 6.94 6.97 3.83 0 6.93-3.12 6.93-6.97 0-3.85-3.1-6.97-6.93-6.97z"/>
		</g>
	</g>
	<path class="s0" d="m72 3v50h-30v-50z"/>
</svg>