<svg xmlns="http://www.w3.org/2000/svg" version="1.1" xmlns:xlink="http://www.w3.org/1999/xlink" width="73" height="93"><svg width="73" height="93" viewBox="0 0 73 93" fill="none" xmlns="http://www.w3.org/2000/svg">
<path d="M35.5 58L7.62939e-06 58C7.22364e-06 67.2826 3.74016 76.185 10.3977 82.7487C17.0552 89.3125 26.0848 93 35.5 93L35.5 58Z" fill="black"></path>
<path d="M14 28C21.732 28 28 21.732 28 14C28 6.26801 21.732 0 14 0C6.26801 0 0 6.26801 0 14C0 21.732 6.26801 28 14 28Z" fill="#B6F500"></path>
<g clip-path="url(#clip0_323_1068)">
<path d="M66.0649 60C62.2347 60 59.1298 63.1213 59.1298 66.9717C59.1298 70.822 62.2347 73.9434 66.0649 73.9434C69.895 73.9434 73 70.822 73 66.9717C73 63.1213 69.895 60 66.0649 60Z" fill="#B6F500"></path>
<path d="M48.8657 60C45.0355 60 41.9305 63.1213 41.9305 66.9717C41.9305 70.822 45.0355 73.9434 48.8657 73.9434C52.6958 73.9434 55.8008 70.822 55.8008 66.9717C55.8008 63.1213 52.6958 60 48.8657 60Z" fill="black"></path>
<path d="M66.0649 78.0566C62.2347 78.0566 59.1298 81.178 59.1298 85.0283C59.1298 88.8787 62.2347 92 66.0649 92C69.895 92 73 88.8787 73 85.0283C73 81.178 69.895 78.0566 66.0649 78.0566Z" fill="black"></path>
<path d="M48.8657 78.0566C45.0355 78.0566 41.9305 81.178 41.9305 85.0283C41.9305 88.8787 45.0355 92 48.8657 92C52.6958 92 55.8008 88.8787 55.8008 85.0283C55.8008 81.178 52.6958 78.0566 48.8657 78.0566Z" fill="black" fill-opacity="0.55"></path>
</g>
<path d="M72 3L72 53L42 53L42 3L72 3Z" fill="black"></path>
<defs>
<clipPath id="SvgjsClipPath1001">
<rect width="31" height="32" fill="white" transform="translate(73 92) rotate(-180)"></rect>
</clipPath>
</defs>
</svg><style>@media (prefers-color-scheme: light) { :root { filter: none; } }
@media (prefers-color-scheme: dark) { :root { filter: none; } }
</style></svg>