<svg width="73" height="126" viewBox="0 0 73 126" fill="none" xmlns="http://www.w3.org/2000/svg">
<g clip-path="url(#clip0_323_1068)">
<path d="M47.6829 0.456414C46.6554 -0.513036 45 0.171282 45 1.53992L45 26.4605C45 27.8291 46.6554 28.5705 47.6829 27.544L56.4165 18.8189V9.23849L47.6829 0.456414Z" fill="#B6F500"/>
<path d="M56.666 1.53986C56.666 0.403226 58.1024 -0.185363 58.9219 0.632629L71.3662 13.0652C71.8962 13.5949 71.8963 14.4058 71.3662 14.9354L58.9219 27.367C58.0552 28.2325 56.6664 27.6109 56.666 26.4608L56.666 18.9227L60.3027 15.2889C61.0284 14.5639 61.0284 13.4357 60.3027 12.7108L56.666 9.07697V1.53986Z" fill="black" stroke="#6F706F" stroke-width="0.5"/>
<path d="M60.1264 12.888L56.416 9.23828V18.8187L60.1264 15.112C60.7543 14.4847 60.7543 13.5153 60.1264 12.888Z" fill="#B6F500"/>
</g>
<path d="M35.5 91L7.62939e-06 91C7.22364e-06 100.283 3.74016 109.185 10.3977 115.749C17.0552 122.313 26.0848 126 35.5 126L35.5 91Z" fill="black"/>
<g clip-path="url(#clip1_323_1068)">
<path d="M66.0649 93C62.2347 93 59.1298 96.1213 59.1298 99.9717C59.1298 103.822 62.2347 106.943 66.0649 106.943C69.895 106.943 73 103.822 73 99.9717C73 96.1213 69.895 93 66.0649 93Z" fill="#B6F500"/>
<path d="M48.8657 93C45.0355 93 41.9305 96.1213 41.9305 99.9717C41.9305 103.822 45.0355 106.943 48.8657 106.943C52.6958 106.943 55.8008 103.822 55.8008 99.9717C55.8008 96.1213 52.6958 93 48.8657 93Z" fill="black"/>
<path d="M66.0649 111.057C62.2347 111.057 59.1298 114.178 59.1298 118.028C59.1298 121.879 62.2347 125 66.0649 125C69.895 125 73 121.879 73 118.028C73 114.178 69.895 111.057 66.0649 111.057Z" fill="black"/>
<path d="M48.8657 111.057C45.0355 111.057 41.9305 114.178 41.9305 118.028C41.9305 121.879 45.0355 125 48.8657 125C52.6958 125 55.8008 121.879 55.8008 118.028C55.8008 114.178 52.6958 111.057 48.8657 111.057Z" fill="black" fill-opacity="0.55"/>
</g>
<path d="M72 36L72 86L42 86L42 36L72 36Z" fill="black"/>
<defs>
<clipPath id="clip0_323_1068">
<rect width="27" height="28" fill="white" transform="translate(45)"/>
</clipPath>
<clipPath id="clip1_323_1068">
<rect width="31" height="32" fill="white" transform="translate(73 125) rotate(-180)"/>
</clipPath>
</defs>
</svg>
