<svg width="71" height="120" viewBox="0 0 71 120" fill="none" xmlns="http://www.w3.org/2000/svg">
<g clip-path="url(#clip0_323_1067)">
<path d="M45.6829 0.456414C44.6554 -0.513036 43 0.171282 43 1.53992L43 26.4605C43 27.8291 44.6554 28.5705 45.6829 27.544L54.4165 18.8189V9.23849L45.6829 0.456414Z" fill="black"/>
<path d="M69.5429 12.888L57.0989 0.456231C56.1285 -0.513219 54.416 0.171099 54.416 1.53973V9.18128L58.1264 12.888C58.7543 13.5153 58.7543 14.4847 58.1264 15.112L54.416 18.8188L54.416 26.4603C54.416 27.8289 56.0714 28.5703 57.0989 27.5438L69.5429 15.112C70.1708 14.4847 70.1708 13.5153 69.5429 12.888Z" fill="#B6F500"/>
<path d="M58.1264 12.888L54.416 9.23828V18.8187L58.1264 15.112C58.7543 14.4847 58.7543 13.5153 58.1264 12.888Z" fill="black"/>
</g>
<path d="M35.5 85L7.62939e-06 85C7.22364e-06 94.2826 3.74016 103.185 10.3977 109.749C17.0552 116.313 26.0848 120 35.5 120L35.5 85Z" fill="black"/>
<g clip-path="url(#clip1_323_1067)">
<path d="M64.0649 88C60.2347 88 57.1298 91.1213 57.1298 94.9717C57.1298 98.822 60.2347 101.943 64.0649 101.943C67.895 101.943 71 98.822 71 94.9717C71 91.1213 67.895 88 64.0649 88Z" fill="#B6F500"/>
<path d="M46.8657 88C43.0355 88 39.9305 91.1213 39.9305 94.9717C39.9305 98.822 43.0355 101.943 46.8657 101.943C50.6958 101.943 53.8008 98.822 53.8008 94.9717C53.8008 91.1213 50.6958 88 46.8657 88Z" fill="black"/>
<path d="M64.0649 106.057C60.2347 106.057 57.1298 109.178 57.1298 113.028C57.1298 116.879 60.2347 120 64.0649 120C67.895 120 71 116.879 71 113.028C71 109.178 67.895 106.057 64.0649 106.057Z" fill="black"/>
<path d="M46.8657 106.057C43.0355 106.057 39.9305 109.178 39.9305 113.028C39.9305 116.879 43.0355 120 46.8657 120C50.6958 120 53.8008 116.879 53.8008 113.028C53.8008 109.178 50.6958 106.057 46.8657 106.057Z" fill="black" fill-opacity="0.55"/>
</g>
<path d="M70 34L70 84L40 84L40 34L70 34Z" fill="black"/>
<defs>
<clipPath id="clip0_323_1067">
<rect width="27" height="28" fill="white" transform="translate(43)"/>
</clipPath>
<clipPath id="clip1_323_1067">
<rect width="31" height="32" fill="white" transform="translate(71 120) rotate(-180)"/>
</clipPath>
</defs>
</svg>
