<svg width="73" height="125" viewBox="0 0 73 125" fill="none" xmlns="http://www.w3.org/2000/svg">
<g clip-path="url(#clip0_323_1067)">
<path d="M47.6829 0.456414C46.6554 -0.513036 45 0.171282 45 1.53992L45 26.4605C45 27.8291 46.6554 28.5705 47.6829 27.544L56.4165 18.8189V9.23849L47.6829 0.456414Z" fill="black"/>
<path d="M56.666 1.53986C56.666 0.403226 58.1024 -0.185363 58.9219 0.632629L71.3662 13.0652C71.8962 13.5949 71.8963 14.4058 71.3662 14.9354L58.9219 27.367C58.0552 28.2325 56.6664 27.6109 56.666 26.4608L56.666 18.9227L60.3027 15.2889C61.0284 14.5639 61.0284 13.4357 60.3027 12.7108L56.666 9.07697V1.53986Z" fill="#B6F500" stroke="#6F706F" stroke-width="0.5"/>
<path d="M60.1264 12.888L56.416 9.23828V18.8187L60.1264 15.112C60.7543 14.4847 60.7543 13.5153 60.1264 12.888Z" fill="black"/>
</g>
<path d="M35.5 90L7.62939e-06 90C7.22364e-06 99.2826 3.74016 108.185 10.3977 114.749C17.0552 121.313 26.0848 125 35.5 125L35.5 90Z" fill="black"/>
<g clip-path="url(#clip1_323_1067)">
<path d="M66.0645 105.693C62.3738 105.693 59.3799 102.685 59.3799 98.9717C59.3799 95.2583 62.3738 92.2502 66.0645 92.25C69.7553 92.25 72.75 95.2582 72.75 98.9717C72.75 102.685 69.7553 105.693 66.0645 105.693Z" fill="#B6F500" stroke="#626262" stroke-width="0.5"/>
<path d="M48.8657 92C45.0355 92 41.9305 95.1213 41.9305 98.9717C41.9305 102.822 45.0355 105.943 48.8657 105.943C52.6958 105.943 55.8008 102.822 55.8008 98.9717C55.8008 95.1213 52.6958 92 48.8657 92Z" fill="black"/>
<path d="M66.0649 110.057C62.2347 110.057 59.1298 113.178 59.1298 117.028C59.1298 120.879 62.2347 124 66.0649 124C69.895 124 73 120.879 73 117.028C73 113.178 69.895 110.057 66.0649 110.057Z" fill="black"/>
<path d="M48.8657 110.057C45.0355 110.057 41.9305 113.178 41.9305 117.028C41.9305 120.879 45.0355 124 48.8657 124C52.6958 124 55.8008 120.879 55.8008 117.028C55.8008 113.178 52.6958 110.057 48.8657 110.057Z" fill="black" fill-opacity="0.55"/>
</g>
<path d="M72 35L72 85L42 85L42 35L72 35Z" fill="black"/>
<defs>
<clipPath id="clip0_323_1067">
<rect width="27" height="28" fill="white" transform="translate(45)"/>
</clipPath>
<clipPath id="clip1_323_1067">
<rect width="31" height="32" fill="white" transform="translate(73 124) rotate(-180)"/>
</clipPath>
</defs>
</svg>
